<svg width="221" height="108" xmlns="http://www.w3.org/2000/svg" xmlns:xlink="http://www.w3.org/1999/xlink" xml:space="preserve" overflow="hidden"><g transform="translate(-591 -388)"><path d="M259.54 152.456C259.54 162.628 251.294 170.873 241.123 170.873L241.123 152.456Z" fill="#794287" transform="matrix(1 0 0 1.17285 386.71 273.991)"/><path d="M222.706 152.456 241.123 152.456 241.123 170.873 222.706 170.873Z" fill="#3B3FBA" transform="matrix(1 0 0 1.17285 386.71 273.991)"/><path d="M259.54-152.456C259.54-142.285 251.294-134.04 241.123-134.04L241.123-152.456Z" fill="#B44655" transform="matrix(1 0 0 -1.17285 386.71 273.991)"/><path d="M-222.706 134.04C-222.706 144.211-230.952 152.456-241.123 152.456L-241.123 134.04Z" fill="#794287" transform="matrix(-1 0 0 1.17285 386.71 273.991)"/><path d="M-222.706-134.04C-222.706-123.869-230.952-115.623-241.123-115.623L-241.123-134.04Z" fill="#B44655" transform="matrix(-1 0 0 -1.17285 386.71 273.991)"/><path d="M241.123 115.623 259.54 115.623 259.54 134.04 241.123 134.04Z" fill="#F04923" transform="matrix(1 0 0 1.17285 386.71 273.991)"/><path d="M259.54 115.623 277.956 115.623 277.956 134.04 259.54 134.04Z" fill="#F57117" transform="matrix(1 0 0 1.17285 386.71 273.991)"/><path d="M277.956 115.623 296.373 115.623 296.373 134.04 277.956 134.04Z" fill="#FA980C" transform="matrix(1 0 0 1.17285 386.71 273.991)"/><path d="M259.54 134.04 277.956 134.04 277.956 152.456 259.54 152.456Z" fill="#F04923" transform="matrix(1 0 0 1.17285 386.71 273.991)"/><path d="M259.54 152.456 277.956 152.456 277.956 170.873 259.54 170.873Z" fill="#B44655" transform="matrix(1 0 0 1.17285 386.71 273.991)"/><path d="M277.956 134.04 277.956 139.434 277.956 152.456 290.979 152.456 287.996 149.473C293.219 146.077 296.371 140.27 296.373 134.04Z" fill="#F57117" transform="matrix(1 0 0 1.17285 386.71 273.991)"/><path d="M296.373 115.623 314.79 115.623 314.79 134.04 296.373 134.04Z" fill="#FFBF00" transform="matrix(1 0 0 1.17285 386.71 273.991)"/><path d="M314.79 115.623 333.206 115.623 333.206 134.04 314.79 134.04Z" fill="#A8B724" transform="matrix(1 0 0 1.17285 386.71 273.991)"/><path d="M333.206 115.623 351.623 115.623 351.623 134.04 333.206 134.04Z" fill="#54B048" transform="matrix(1 0 0 1.17285 386.71 273.991)"/><path d="M296.373 134.04 314.79 134.04 314.79 152.456 296.373 152.456Z" fill="#FA980C" transform="matrix(1 0 0 1.17285 386.71 273.991)"/><path d="M314.79 134.04 314.79 143.248C314.79 138.163 318.913 134.04 323.998 134.04ZM323.998 134.04C329.084 134.04 333.206 138.163 333.206 143.248L333.206 134.04ZM333.206 143.248C333.206 148.334 329.084 152.456 323.998 152.456L333.206 152.456ZM323.998 152.456C318.913 152.456 314.79 148.334 314.79 143.248L314.79 152.456Z" fill="#FFBF00" transform="matrix(1 0 0 1.17285 386.71 273.991)"/><path d="M333.206 134.04 351.623 134.04 351.623 152.456 333.206 152.456Z" fill="#A8B724" transform="matrix(1 0 0 1.17285 386.71 273.991)"/><path d="M296.373 152.456 314.79 152.456 314.79 170.873 296.373 170.873Z" fill="#F57117" transform="matrix(1 0 0 1.17285 386.71 273.991)"/><path d="M314.79 152.456 333.206 152.456 333.206 170.873 314.79 170.873Z" fill="#FA980C" transform="matrix(1 0 0 1.17285 386.71 273.991)"/><path d="M333.206 152.456 351.623 152.456 351.623 170.873 333.206 170.873Z" fill="#FFBF00" transform="matrix(1 0 0 1.17285 386.71 273.991)"/><path d="M370.039 152.456C370.039 162.628 361.794 170.873 351.623 170.873L351.623 152.456Z" fill="#A8B724" transform="matrix(1 0 0 1.17285 386.71 273.991)"/><path d="M370.039-134.04C370.039-123.869 361.794-115.623 351.623-115.623L351.623-134.04Z" fill="#00A86B" transform="matrix(1 0 0 -1.17285 386.71 273.991)"/><path d="M370.039 115.623 388.455 115.623 388.455 134.04 370.039 134.04Z" fill="#148486" transform="matrix(1 0 0 1.17285 386.71 273.991)"/><path d="M370.039 134.04 388.455 134.04 388.455 152.456 370.039 152.456Z" fill="#00A86B" transform="matrix(1 0 0 1.17285 386.71 273.991)"/><path d="M370.039 152.456 388.455 152.456 388.455 170.873 370.039 170.873Z" fill="#54B048" transform="matrix(1 0 0 1.17285 386.71 273.991)"/><path d="M388.455 115.623 406.872 115.623 406.872 134.04 388.455 134.04Z" fill="#2862A0" transform="matrix(1 0 0 1.17285 386.71 273.991)"/><path d="M277.956 152.456 277.956 165.479 283.351 170.873 296.373 170.873 296.373 157.85 290.979 152.456Z" fill="#F04923" transform="matrix(1 0 0 1.17285 386.71 273.991)"/><path d="M388.455 152.456 406.872 152.456 406.872 170.873 388.455 170.873Z" fill="#148486" transform="matrix(1 0 0 1.17285 386.71 273.991)"/><path d="M388.455 152.456 388.455 134.04 397.664 143.248Z" fill="#148486" transform="matrix(1 0 0 1.17285 386.71 273.991)"/><path d="M351.623 134.04 351.623 152.456 370.039 152.456C370.035 149.222 369.177 146.046 367.553 143.248 369.177 140.45 370.035 137.275 370.039 134.04Z" fill="#54B048" transform="matrix(1 0 0 1.17285 386.71 273.991)"/><path d="M388.455 152.456 406.872 152.456 406.872 170.873 388.455 170.873Z" fill="#00A86B" transform="matrix(1 0 0 1.17285 386.71 273.991)"/></g></svg>